# Blender 3.6.2
# www.blender.org
mtllib piece.mtl
o Cube
v -0.049848 1.372118 1.407152
v -0.076874 1.017330 -0.858411
v -0.037962 -0.745246 1.432501
v -0.078122 -1.308308 -1.395261
v -0.119707 0.769064 0.294434
v -0.083752 1.000434 -0.011774
v -0.079513 0.367775 -0.368585
v -0.053742 -1.227480 -0.408456
v -0.083752 -0.999168 -0.051678
v -0.139433 -1.675059 0.124105
v -0.049848 1.372118 1.407152
v -0.076874 1.017330 -0.858411
v -0.037962 -0.745246 1.432501
v -0.078122 -1.308308 -1.395261
v -0.119707 0.769064 0.294434
v -0.083752 1.000434 -0.011774
v -0.079513 0.367775 -0.368585
v -0.053742 -1.227480 -0.408456
v -0.083752 -0.999168 -0.051678
v -0.139433 -1.675059 0.124105
v -0.117200 1.372074 1.405082
v -0.144226 1.017286 -0.860482
v -0.105314 -0.745290 1.430431
v -0.145475 -1.308352 -1.397331
v -0.187060 0.769020 0.292364
v -0.151105 1.000390 -0.013844
v -0.146865 0.367731 -0.370655
v -0.121094 -1.227524 -0.410527
v -0.151105 -0.999212 -0.053749
v -0.206785 -1.675103 0.122034
vn 0.9975 0.0005 -0.0709
vn 0.9999 0.0080 -0.0117
vn 0.9992 0.0063 0.0404
vn 0.9863 -0.0122 0.1646
vn -0.0173 -0.8144 0.5801
vn 0.0264 0.4912 -0.8706
vn 0.0299 -0.2539 -0.9668
vn 0.0298 0.2248 -0.9739
vn -0.0000 -0.0200 0.9998
vn -0.9975 -0.0005 0.0709
vn -0.9999 -0.0080 0.0117
vn -0.9992 -0.0063 -0.0404
vn -0.9863 0.0122 -0.1646
vn -0.0307 0.0118 0.9995
vn -0.0019 -0.9967 0.0817
vn 0.0141 0.8787 -0.4771
vn -0.0249 0.6020 0.7981
vn -0.0160 -0.8428 0.5380
vn -0.0190 0.7988 0.6013
vt 0.673417 0.000000
vt 0.673417 1.000000
vt 1.000000 1.000000
vt 1.000000 0.000000
vt 0.000000 0.000000
vt 0.000000 1.000000
vt 0.173417 1.000000
vt 0.173417 0.000000
vt 0.423417 1.000000
vt 0.423417 0.000000
s 0
g the_piece
usemtl Material
f 10/1/1 5/2/1 1/3/1 3/4/1
f 4/5/2 2/6/2 7/7/2 8/8/2
f 8/8/3 7/7/3 6/9/3 9/10/3
f 9/10/4 6/9/4 5/2/4 10/1/4
f 20/1/5 13/4/5 23/4/5 30/1/5
f 16/9/6 17/7/6 27/7/6 26/9/6
f 19/10/7 20/1/7 30/1/7 29/10/7
f 12/6/8 14/5/8 24/5/8 22/6/8
f 8/8/9 9/10/9 19/10/9 18/8/9
f 5/2/9 6/9/9 16/9/9 15/2/9
f 2/6/9 4/5/9 14/5/9 12/6/9
f 9/10/9 10/1/9 20/1/9 19/10/9
f 6/9/9 7/7/9 17/7/9 16/9/9
f 10/1/9 3/4/9 13/4/9 20/1/9
f 3/4/9 1/3/9 11/3/9 13/4/9
f 4/5/9 8/8/9 18/8/9 14/5/9
f 1/3/9 5/2/9 15/2/9 11/3/9
f 7/7/9 2/6/9 12/6/9 17/7/9
f 30/1/10 23/4/10 21/3/10 25/2/10
f 24/5/11 28/8/11 27/7/11 22/6/11
f 28/8/12 29/10/12 26/9/12 27/7/12
f 29/10/13 30/1/13 25/2/13 26/9/13
f 13/4/14 11/3/14 21/3/14 23/4/14
f 14/5/15 18/8/15 28/8/15 24/5/15
f 11/3/16 15/2/16 25/2/16 21/3/16
f 17/7/17 12/6/17 22/6/17 27/7/17
f 18/8/18 19/10/18 29/10/18 28/8/18
f 15/2/19 16/9/19 26/9/19 25/2/19
